Coordinates
version=1
nRows=14
nColumns=32
inDegrees=yes

Units are S.I. units (second, meters, Newtons, ...)
If the header above contains a line with 'inDegrees', this indicates whether rotational values are in degrees (yes) or radians (no).

endheader
time	pelvis_tilt	pelvis_list	pelvis_rotation	pelvis_tx	pelvis_ty	pelvis_tz	hip_flexion_r	hip_adduction_r	hip_rotation_r	knee_angle_r	knee_adduction_r	med_cond_adduction_r	lat_cond_adduction_r	patella_r_constrained_knee_angle	ankle_angle_r	subtalar_angle_r	mtp_angle_r	hip_flexion_l	hip_adduction_l	hip_rotation_l	knee_angle_l	knee_adduction_l	med_cond_adduction_l	lat_cond_adduction_l	patella_l_constrained_knee_angle	ankle_angle_l	subtalar_angle_l	mtp_angle_l	lumbar_extension	lumbar_bending	lumbar_rotation
      1.77000000	     -9.42021841	     -3.02412974	     -1.48535150	      0.16434921	      0.51849335	     -1.20871539	     87.22266876	    -43.81488037	     -6.49095131	   -113.26879627	     -9.39974446	      0.00000000	      0.00000000	     -1.97691343	     28.90493822	     16.97915125	     -0.00000000	     97.07098269	    -47.46287632	      4.14289495	   -113.12073004	     -9.61156593	     -0.00000000	     -0.00000000	     -1.97432919	     26.11854002	     19.48692009	      0.00000000	    -29.97592146	      3.72283013	     -1.60989449
      1.77500000	     -9.26227971	     -3.07693244	     -1.78181162	      0.16439663	      0.51719807	     -1.20817243	     87.26358794	    -43.46755464	     -6.44427861	   -113.50850833	     -9.42387897	     -0.00000000	     -0.00000000	     -1.98109720	     28.89161108	     16.59081733	     -0.00000000	     97.31789023	    -47.87973434	      4.48432260	   -113.36155955	     -9.62576647	      0.00000000	      0.00000000	     -1.97853246	     26.26488580	     19.49088452	      0.00000000	    -30.26776450	      3.73695937	     -1.05354219
      1.78000000	     -9.15072102	     -3.26156362	     -1.71216406	      0.16444609	      0.51556571	     -1.20860192	     87.22071823	    -43.61417108	     -6.56153773	   -113.74887723	     -9.45014273	     -0.00000000	     -0.00000000	     -1.98529243	     28.92953066	     16.59691320	      0.00000000	     97.76716518	    -47.76990563	      5.02315844	   -113.66880966	     -9.63141392	     -0.00000000	     -0.00000000	     -1.98389499	     26.34949277	     19.48970315	     -0.00000000	    -30.45844901	      3.92619472	     -1.20330667
      1.78500000	     -9.08291057	     -3.15344975	     -1.75349454	      0.16446929	      0.51385149	     -1.20853379	     87.62160510	    -43.62176189	     -6.16721155	   -114.04018100	     -9.46482600	      0.00000000	      0.00000000	     -1.99037664	     28.93979268	     16.56451657	      0.00000000	     97.88500138	    -47.82599587	      5.08278488	   -113.93814883	     -9.64151738	     -0.00000000	      0.00000000	     -1.98859584	     26.43431223	     19.48803667	     -0.00000000	    -30.59747380	      3.85069481	     -1.06740475
      1.79000000	     -8.97581137	     -3.22960064	     -1.75141923	      0.16454114	      0.51226201	     -1.20872970	     87.71531158	    -43.68358165	     -6.09705025	   -114.28933224	     -9.47960560	      0.00000000	      0.00000000	     -1.99472515	     28.97021927	     16.55154953	     -0.00000000	     98.19418575	    -47.81880014	      5.43428660	   -114.22837112	     -9.64751676	      0.00000000	      0.00000000	     -1.99366118	     26.50191199	     19.48630457	      0.00000000	    -30.78552887	      3.92419788	     -1.06585580
      1.79500000	     -8.87336740	     -3.21140139	     -1.75542961	      0.16461265	      0.51056225	     -1.20883415	     87.96470019	    -43.74571665	     -5.84003437	   -114.57345633	     -9.49202454	      0.00000000	      0.00000000	     -1.99968405	     28.99084249	     16.58732030	      0.00000000	     98.40516399	    -47.82472609	      5.65144056	   -114.52098859	     -9.65387065	      0.00000000	      0.00000000	     -1.99876831	     26.56086179	     19.48317943	     -0.00000000	    -30.93540333	      3.80528002	     -1.22993692
      1.80000000	     -8.77032101	     -3.17549946	     -1.78290957	      0.16467735	      0.50894409	     -1.20886251	     88.21498940	    -43.77082088	     -5.57231797	   -114.84098567	     -9.50632043	      0.00000000	      0.00000000	     -2.00435332	     29.00666038	     16.56871135	     -0.00000000	     98.56409454	    -47.85494209	      5.82093506	   -114.79157808	     -9.66199773	     -0.00000000	     -0.00000000	     -2.00349099	     26.64355583	     19.48066409	     -0.00000000	    -31.11262225	      3.85403194	     -1.02114426
      1.80500000	     -8.66933835	     -3.07000933	     -1.84588424	      0.16470707	      0.50728592	     -1.20878581	     88.57486664	    -43.74926816	     -5.18415519	   -115.12499620	     -9.52092190	      0.00000000	      0.00000000	     -2.00931024	     29.02280924	     16.53161608	      0.00000000	     98.64316840	    -47.92558741	      5.89257168	   -115.06327102	     -9.66913858	      0.00000000	      0.00000000	     -2.00823293	     26.75111739	     19.47782012	      0.00000000	    -31.27593514	      3.71462405	     -0.96692562
      1.81000000	     -8.55223082	     -3.23698608	     -1.81820307	      0.16479425	      0.50566525	     -1.20914503	     88.54376498	    -43.83798923	     -5.24483479	   -115.36319504	     -9.53617632	     -0.00000000	      0.00000000	     -2.01346759	     29.04764056	     16.54985570	     -0.00000000	     99.07021187	    -47.84805041	      6.41533079	   -115.37178860	     -9.67228628	     -0.00000000	     -0.00000000	     -2.01361758	     26.80672903	     19.47246173	      0.00000000	    -31.46726100	      3.89041645	     -1.00945766
      1.81500000	     -8.44765942	     -3.21156141	     -1.84891585	      0.16487355	      0.50397981	     -1.20920415	     88.80270065	    -43.85592294	     -4.97685781	   -115.63977333	     -9.54893478	     -0.00000000	     -0.00000000	     -2.01829479	     29.06411398	     16.52891516	     -0.00000000	     99.24814708	    -47.87051849	      6.62059517	   -115.65395203	     -9.68181282	     -0.00000000	     -0.00000000	     -2.01854226	     26.89196063	     19.47098326	      0.00000000	    -31.61819658	      3.89554370	     -0.90777325
      1.82000000	     -8.35919956	     -3.16379520	     -1.88683091	      0.16495616	      0.50226835	     -1.20921014	     89.09262342	    -43.84676526	     -4.67051717	   -115.91414092	     -9.56137978	     -0.00000000	     -0.00000000	     -2.02308341	     29.07751947	     16.50384942	      0.00000000	     99.42278276	    -47.90828236	      6.78882141	   -115.93979684	     -9.68545890	      0.00000000	      0.00000000	     -2.02353119	     26.98580042	     19.46971660	      0.00000000	    -31.75255756	      3.83910304	     -0.84443886
      1.82500000	     -8.21411108	     -3.26126371	     -1.88162648	      0.16502801	      0.50069232	     -1.20950000	     89.13933391	    -43.90767247	     -4.61048870	   -116.16321316	     -9.57629945	      0.00000000	      0.00000000	     -2.02743054	     29.09865354	     16.46843968	     -0.00000000	     99.70568806	    -47.85403508	      7.19219893	   -116.23464290	     -9.69371684	     -0.00000000	     -0.00000000	     -2.02867722	     27.06687960	     19.46514895	      0.00000000	    -31.95647020	      3.93478745	     -0.87597222
      1.83000000	     -8.08723413	     -3.31933041	     -1.90545499	      0.16511224	      0.49907106	     -1.20965246	     89.24875172	    -43.92438185	     -4.48159650	   -116.42199895	     -9.58718042	     -0.00000000	     -0.00000000	     -2.03194720	     29.11880479	     16.44177242	      0.00000000	     99.96528038	    -47.83978301	      7.54252402	   -116.52004259	     -9.69856970	     -0.00000000	     -0.00000000	     -2.03365839	     27.14844633	     19.46172158	      0.00000000	    -32.13711103	      4.00983593	     -0.79544353
      1.83500000	     -7.94549519	     -3.21582500	     -1.98685803	      0.16519841	      0.49751073	     -1.20954116	     89.55115793	    -43.86945274	     -4.09208472	   -116.69546641	     -9.59710964	     -0.00000000	     -0.00000000	     -2.03672011	     29.13094882	     16.38927904	      0.00000000	     99.99435240	    -47.93634815	      7.61962734	   -116.79002998	     -9.70439392	      0.00000000	      0.00000000	     -2.03837056	     27.24238158	     19.45783273	      0.00000000	    -32.32146823	      3.89451624	     -0.66716595
